<svg width="78" height="35" fill="none" xmlns="http://www.w3.org/2000/svg"><path d="M17.323 32.71c8.133 0 14.725-6.4 14.725-14.294 0-7.895-6.592-14.294-14.725-14.294-8.132 0-14.725 6.4-14.725 14.294S9.191 32.71 17.323 32.71z" fill="#24B34E"/><path d="M0 17.323a17.323 17.323 0 1134.647 0 17.323 17.323 0 01-34.647 0z" fill="#24B34E"/><path d="M25.769 9.195a3.14 3.14 0 00-3.029-2.31h-.027a3.176 3.176 0 00-1.552 5.936v9.602a6.364 6.364 0 013.149 1.885v-11.51a3.177 3.177 0 001.455-3.603h.004zm-3.052 1.925a1.059 1.059 0 111.059-1.059 1.058 1.058 0 01-1.063 1.054l.004.005zm1.467 15.614a6.379 6.379 0 00-5.736-3.56h-3.234a3.212 3.212 0 01-3.224-3.207V15.65a3.016 3.016 0 10-2.986 0v4.354c0 3.498 2.703 6.311 6.21 6.311h3.234a3.228 3.228 0 012.537 1.225h3.596l-.397-.806zM10.523 13.88a1.058 1.058 0 110-2.116 1.058 1.058 0 010 2.116zm49.503 10.891c1.576 0 2.978-.225 4.054-.7v-2.002c-.951.375-2.302.625-3.503.625-2.878 0-4.18-.725-4.455-3.027h8.683v-2.202c0-2.953-1.826-5.055-5.43-5.055-3.953 0-5.855 2.352-5.855 6.156 0 4.204 2.352 6.205 6.506 6.205zm-3.904-6.881c0-2.352.801-3.428 3.328-3.428 2.127 0 2.953.976 2.953 2.602v.826h-6.28zm14.271 6.631h2.953L78 12.661h-2.803l-3.328 9.208-3.328-9.209h-2.827l2.34 5.93 2.339 5.931zm-30.29-1.361c-.943-.91-1.414-2.39-1.414-4.442 0-1.385.242-2.57.726-3.553.484-.985 1.15-1.731 2.002-2.24.85-.508 1.828-.761 2.932-.761a6.737 6.737 0 011.902.25 5.781 5.781 0 011.626.776V7.407h2.728v16.866h-2.332l-.17-1.176a5.246 5.246 0 01-1.777 1.088 6.652 6.652 0 01-2.227.338c-1.72 0-3.053-.454-3.996-1.364zm7.77-1.94v-5.93c-.785-.701-1.77-1.051-2.953-1.051-1.151 0-2.017.385-2.599 1.155-.581.77-.873 1.887-.875 3.353 0 1.384.262 2.352.788 2.902.525.55 1.389.826 2.59.826 1.215-.003 2.231-.42 3.049-1.255z" fill="#fff"/></svg>